<mxfile host="65bd71144e">
    <diagram id="wY6ihsPDAokqJkuu7oca" name="Page-1">
        <mxGraphModel dx="1850" dy="1107" grid="0" gridSize="10" guides="1" tooltips="1" connect="1" arrows="1" fold="1" page="1" pageScale="1" pageWidth="827" pageHeight="1169" background="#ffffff" math="0" shadow="0">
            <root>
                <mxCell id="0"/>
                <mxCell id="1" parent="0"/>
                <mxCell id="12" style="edgeStyle=none;html=1;strokeColor=#000000;fontSize=14;fontColor=#000000;" parent="1" source="2" target="8" edge="1">
                    <mxGeometry relative="1" as="geometry"/>
                </mxCell>
                <mxCell id="2" value="Django" style="rounded=0;whiteSpace=wrap;html=1;fillColor=none;strokeColor=#121212;fontColor=#000000;fontSize=14;fontStyle=1" parent="1" vertex="1">
                    <mxGeometry x="351" y="191" width="120" height="60" as="geometry"/>
                </mxCell>
                <mxCell id="4" style="edgeStyle=none;html=1;fontSize=14;fontColor=#000000;strokeColor=#000000;" parent="1" source="3" edge="1">
                    <mxGeometry relative="1" as="geometry">
                        <mxPoint x="344.1400604248047" y="226" as="targetPoint"/>
                    </mxGeometry>
                </mxCell>
                <mxCell id="16" value="faz chamada" style="edgeLabel;html=1;align=center;verticalAlign=middle;resizable=0;points=[];fontSize=14;fontColor=#000000;labelBackgroundColor=none;" parent="4" vertex="1" connectable="0">
                    <mxGeometry x="-0.3836" y="4" relative="1" as="geometry">
                        <mxPoint x="17" y="-7" as="offset"/>
                    </mxGeometry>
                </mxCell>
                <mxCell id="3" value="&lt;font color=&quot;#000000&quot;&gt;&lt;span style=&quot;background-color: rgb(255, 255, 255);&quot;&gt;Cliente&lt;/span&gt;&lt;/font&gt;" style="shape=umlActor;verticalLabelPosition=bottom;verticalAlign=top;html=1;outlineConnect=0;strokeColor=#121212;fillColor=none;" parent="1" vertex="1">
                    <mxGeometry x="189" y="196" width="30" height="60" as="geometry"/>
                </mxCell>
                <mxCell id="13" style="edgeStyle=none;html=1;strokeColor=#000000;fontSize=14;fontColor=#000000;" parent="1" source="8" target="9" edge="1">
                    <mxGeometry relative="1" as="geometry"/>
                </mxCell>
                <mxCell id="8" value="View" style="rounded=0;whiteSpace=wrap;html=1;fillColor=none;strokeColor=#121212;fontColor=#000000;fontSize=14;fontStyle=1" parent="1" vertex="1">
                    <mxGeometry x="351" y="321" width="120" height="60" as="geometry"/>
                </mxCell>
                <mxCell id="14" style="edgeStyle=none;html=1;entryX=0;entryY=0.5;entryDx=0;entryDy=0;strokeColor=#000000;fontSize=14;fontColor=#000000;" parent="1" source="9" target="10" edge="1">
                    <mxGeometry relative="1" as="geometry"/>
                </mxCell>
                <mxCell id="15" style="edgeStyle=none;html=1;strokeColor=#000000;fontSize=14;fontColor=#000000;" parent="1" source="9" target="11" edge="1">
                    <mxGeometry relative="1" as="geometry"/>
                </mxCell>
                <mxCell id="9" value="Service" style="rounded=0;whiteSpace=wrap;html=1;fillColor=none;strokeColor=#121212;fontColor=#000000;fontSize=14;fontStyle=1" parent="1" vertex="1">
                    <mxGeometry x="351" y="431" width="120" height="60" as="geometry"/>
                </mxCell>
                <mxCell id="10" value="Validator" style="rounded=0;whiteSpace=wrap;html=1;fillColor=none;strokeColor=#121212;fontColor=#000000;fontSize=14;fontStyle=1" parent="1" vertex="1">
                    <mxGeometry x="534" y="431" width="120" height="60" as="geometry"/>
                </mxCell>
                <mxCell id="21" style="edgeStyle=none;html=1;entryX=0.463;entryY=0.014;entryDx=0;entryDy=0;entryPerimeter=0;strokeColor=#000000;fontSize=14;fontColor=#000000;" parent="1" source="11" target="19" edge="1">
                    <mxGeometry relative="1" as="geometry"/>
                </mxCell>
                <mxCell id="22" style="edgeStyle=none;html=1;entryX=0.5;entryY=0;entryDx=0;entryDy=0;strokeColor=#000000;fontSize=14;fontColor=#000000;" parent="1" source="11" target="20" edge="1">
                    <mxGeometry relative="1" as="geometry"/>
                </mxCell>
                <mxCell id="11" value="Repository" style="rounded=0;whiteSpace=wrap;html=1;fillColor=none;strokeColor=#121212;fontColor=#000000;fontSize=14;fontStyle=1" parent="1" vertex="1">
                    <mxGeometry x="351" y="547" width="120" height="60" as="geometry"/>
                </mxCell>
                <mxCell id="19" value="API" style="rounded=0;whiteSpace=wrap;html=1;fillColor=none;strokeColor=#121212;fontColor=#000000;fontSize=14;fontStyle=1" parent="1" vertex="1">
                    <mxGeometry x="284" y="668" width="120" height="60" as="geometry"/>
                </mxCell>
                <mxCell id="20" value="Database" style="rounded=0;whiteSpace=wrap;html=1;fillColor=none;strokeColor=#121212;fontColor=#000000;fontSize=14;fontStyle=1" parent="1" vertex="1">
                    <mxGeometry x="418" y="668" width="120" height="60" as="geometry"/>
                </mxCell>
                <mxCell id="23" style="edgeStyle=none;html=1;strokeColor=#000000;fontSize=14;fontColor=#000000;" edge="1" parent="1" source="24" target="29">
                    <mxGeometry relative="1" as="geometry"/>
                </mxCell>
                <mxCell id="24" value="Script" style="rounded=0;whiteSpace=wrap;html=1;fillColor=none;strokeColor=#121212;fontColor=#000000;fontSize=14;fontStyle=1" vertex="1" parent="1">
                    <mxGeometry x="878" y="176" width="120" height="60" as="geometry"/>
                </mxCell>
                <mxCell id="25" style="edgeStyle=none;html=1;fontSize=14;fontColor=#000000;strokeColor=#000000;entryX=1;entryY=0.5;entryDx=0;entryDy=0;" edge="1" parent="1" source="27" target="24">
                    <mxGeometry relative="1" as="geometry">
                        <mxPoint x="871.1400604248047" y="211" as="targetPoint"/>
                    </mxGeometry>
                </mxCell>
                <mxCell id="26" value="executa script" style="edgeLabel;html=1;align=center;verticalAlign=middle;resizable=0;points=[];fontSize=14;fontColor=#000000;labelBackgroundColor=none;" vertex="1" connectable="0" parent="25">
                    <mxGeometry x="-0.3836" y="4" relative="1" as="geometry">
                        <mxPoint x="-29" y="-14" as="offset"/>
                    </mxGeometry>
                </mxCell>
                <mxCell id="27" value="&lt;font color=&quot;#000000&quot;&gt;&lt;span style=&quot;background-color: rgb(255, 255, 255);&quot;&gt;Cliente&lt;/span&gt;&lt;/font&gt;" style="shape=umlActor;verticalLabelPosition=bottom;verticalAlign=top;html=1;outlineConnect=0;strokeColor=#121212;fillColor=none;" vertex="1" parent="1">
                    <mxGeometry x="1205" y="176" width="30" height="60" as="geometry"/>
                </mxCell>
                <mxCell id="28" style="edgeStyle=none;html=1;strokeColor=#000000;fontSize=14;fontColor=#000000;" edge="1" parent="1" source="29" target="32">
                    <mxGeometry relative="1" as="geometry"/>
                </mxCell>
                <mxCell id="40" style="edgeStyle=none;html=1;entryX=1;entryY=0.5;entryDx=0;entryDy=0;fontSize=16;fontColor=#000000;exitX=0;exitY=0.5;exitDx=0;exitDy=0;strokeColor=#000000;" edge="1" parent="1" source="29" target="20">
                    <mxGeometry relative="1" as="geometry"/>
                </mxCell>
                <mxCell id="29" value="Buscar no banco de dados" style="rounded=0;whiteSpace=wrap;html=1;fillColor=none;strokeColor=#121212;fontColor=#000000;fontSize=14;fontStyle=1" vertex="1" parent="1">
                    <mxGeometry x="872" y="303" width="132" height="60" as="geometry"/>
                </mxCell>
                <mxCell id="31" style="edgeStyle=none;html=1;strokeColor=#000000;fontSize=14;fontColor=#000000;" edge="1" parent="1" source="32" target="36">
                    <mxGeometry relative="1" as="geometry"/>
                </mxCell>
                <mxCell id="32" value="Processa arquivo bruto" style="rounded=0;whiteSpace=wrap;html=1;fillColor=none;strokeColor=#121212;fontColor=#000000;fontSize=14;fontStyle=1" vertex="1" parent="1">
                    <mxGeometry x="873" y="416" width="130" height="60" as="geometry"/>
                </mxCell>
                <mxCell id="35" style="edgeStyle=none;html=1;entryX=0.5;entryY=0;entryDx=0;entryDy=0;strokeColor=#000000;fontSize=14;fontColor=#000000;" edge="1" parent="1" source="36" target="38">
                    <mxGeometry relative="1" as="geometry"/>
                </mxCell>
                <mxCell id="36" value="Gera relatório" style="rounded=0;whiteSpace=wrap;html=1;fillColor=none;strokeColor=#121212;fontColor=#000000;fontSize=14;fontStyle=1" vertex="1" parent="1">
                    <mxGeometry x="878" y="532" width="120" height="60" as="geometry"/>
                </mxCell>
                <mxCell id="38" value="Envia email" style="rounded=0;whiteSpace=wrap;html=1;fillColor=none;strokeColor=#121212;fontColor=#000000;fontSize=14;fontStyle=1" vertex="1" parent="1">
                    <mxGeometry x="878" y="651" width="120" height="60" as="geometry"/>
                </mxCell>
                <mxCell id="39" value="Aplicação 1" style="swimlane;startSize=0;strokeColor=#000000;fontColor=#000000;fontSize=16;" vertex="1" parent="1">
                    <mxGeometry x="249" y="152" width="423" height="599" as="geometry"/>
                </mxCell>
                <mxCell id="41" value="Aplicação 2" style="swimlane;startSize=0;strokeColor=#000000;fontColor=#000000;fontSize=16;" vertex="1" parent="1">
                    <mxGeometry x="759" y="152" width="347" height="599" as="geometry"/>
                </mxCell>
            </root>
        </mxGraphModel>
    </diagram>
</mxfile>